<svg xmlns="http://www.w3.org/2000/svg" width="170.473" height="75.6" viewBox="0 0 170.473 75.6"><defs><style>.a,.b{fill:#fff;}.a{fill-rule:evenodd;}</style></defs><g transform="translate(-48.301 -66.223)"><g transform="translate(48.301 66.223)"><path class="a" d="M68.331,140.6A36.166,36.166,0,0,1,57.273,91.9c-2.828-.516-7.738-1.352-8.972-1.183,8.064-1.143,33.311-3.8,47.275,5.239,16.77,10.856,9.181,17.271.737,17.71s-15.147-6.188-26.64,1.812C62.9,120.189,65.255,131.833,68.331,140.6Z" transform="translate(-48.301 -74.28)"/><path class="a" d="M85.229,67.814a36.165,36.165,0,1,1-4.063,67.654,60.826,60.826,0,0,0-1.114,6.355v0C78.761,136.6,75.37,119.5,84.6,114.207c10.948-6.272,19.107,5.549,32.631,1.522s9.069-30.262-15.684-37.9c-11.574-3.569-22.884-2.659-31.649-.678A35.991,35.991,0,0,1,85.229,67.814Z" transform="translate(-55.794 -66.223)"/></g><g transform="translate(138.633 72.314)"><path class="b" d="M204.192,76.855a10.586,10.586,0,0,1,3.25,2.181,10.175,10.175,0,0,1,2.2,3.23,10.125,10.125,0,0,1,0,7.9,9.937,9.937,0,0,1-2.2,3.209,10.764,10.764,0,0,1-3.25,2.16,9.823,9.823,0,0,1-3.949.8h-3.209l-3.126-5.76h6.336a4.227,4.227,0,0,0,1.707-.349,3.965,3.965,0,0,0,1.379-.988,5,5,0,0,0,.925-1.522,5.279,5.279,0,0,0,.349-1.954,4.535,4.535,0,0,0-.349-1.748,5.459,5.459,0,0,0-.925-1.5,4.623,4.623,0,0,0-1.379-1.07,3.7,3.7,0,0,0-1.707-.411h-7.282v23.821h-5.719v-28.8h13A9.835,9.835,0,0,1,204.192,76.855Z" transform="translate(-186.831 -75.724)"/><path class="b" d="M254.923,89.043q.04.616.041,1.234a15.162,15.162,0,0,1-1.09,5.739,14.633,14.633,0,0,1-3,4.69,14.064,14.064,0,0,1-10.223,4.3,14.44,14.44,0,0,1-5.739-1.152,14.616,14.616,0,0,1-7.837-7.837,14.87,14.87,0,0,1,0-11.478,14.616,14.616,0,0,1,7.837-7.837,14.452,14.452,0,0,1,5.739-1.152,14.123,14.123,0,0,1,7.261,1.913,15.14,15.14,0,0,1,5.245,5.04l-4.813,3.085a8.99,8.99,0,0,0-3.147-3.559,8.112,8.112,0,0,0-4.546-1.337,7.961,7.961,0,0,0-3.456.761,9.027,9.027,0,0,0-2.8,2.057,10.1,10.1,0,0,0,0,13.536,9.027,9.027,0,0,0,2.8,2.057,8.207,8.207,0,0,0,6.253.268,7.5,7.5,0,0,0,2.345-1.4,9.582,9.582,0,0,0,1.79-2.119,9.27,9.27,0,0,0,1.131-2.695h-7.816l-2.633-5.348H254.8Q254.882,88.426,254.923,89.043Z" transform="translate(-200.247 -75.549)"/><path class="b" d="M201.012,128.053v28.8h-5.924v-23.78h-8.475v-5.019Zm.864,0h7.611v5.019h-5.1Z" transform="translate(-186.612 -93.762)"/><path class="b" d="M222.842,140.148a10.287,10.287,0,0,1,4.155.843,10.762,10.762,0,0,1,5.657,5.657,10.46,10.46,0,0,1,0,8.228A10.762,10.762,0,0,1,227,160.533a10.652,10.652,0,0,1-8.31,0,10.762,10.762,0,0,1-5.657-5.657,10.459,10.459,0,0,1,0-8.228,10.762,10.762,0,0,1,5.657-5.657A10.285,10.285,0,0,1,222.842,140.148Zm0,16.332a4.139,4.139,0,0,0,1.913-.452,5.062,5.062,0,0,0,1.564-1.255,6.179,6.179,0,0,0,1.069-1.851,6.493,6.493,0,0,0,.391-2.283,6.257,6.257,0,0,0-.391-2.2,5.652,5.652,0,0,0-1.069-1.81,5.349,5.349,0,0,0-1.564-1.213,4.14,4.14,0,0,0-1.913-.453,4.259,4.259,0,0,0-1.933.453,5.245,5.245,0,0,0-1.584,1.213,5.655,5.655,0,0,0-1.07,1.81,6.255,6.255,0,0,0-.391,2.2,6.492,6.492,0,0,0,.391,2.283,6.181,6.181,0,0,0,1.07,1.851,4.971,4.971,0,0,0,1.584,1.255A4.258,4.258,0,0,0,222.842,156.48Z" transform="translate(-195.484 -97.958)"/><path class="b" d="M260.034,156.039l1.975,3.579v.041a7.72,7.72,0,0,1-5.307,1.893q-5.02,0-7.117-2.716-1.935-2.426-1.933-7.734v-10.45h5.636V151.1q0,1.11.061,2.139a4.627,4.627,0,0,0,.453,1.81,2.96,2.96,0,0,0,1.214,1.255,4.753,4.753,0,0,0,2.345.473,4.508,4.508,0,0,0,1.358-.206,6.191,6.191,0,0,0,1.234-.534Zm8.64-15.387v20.694h-5.636V140.652Z" transform="translate(-207.786 -98.133)"/><path class="b" d="M300.4,141.3l-.494.823-2.1,3.744-.042-.041a5.907,5.907,0,0,0-4.937-.432,5.464,5.464,0,0,0-1.687.988,6.041,6.041,0,0,0-1.254,1.5,5.262,5.262,0,0,0-.679,1.852v11.314h-5.6v-20.57h5.6v2.674a7.383,7.383,0,0,1,6.376-3,10.555,10.555,0,0,1,4.772,1.151Z" transform="translate(-220.263 -97.958)"/></g></g></svg>